<svg width="1000" height="1000" viewBox="0 0 1000 1000" fill="none" xmlns="http://www.w3.org/2000/svg">
<g clip-path="url(#clip0)">
<rect width="1000" height="1000" fill="#869BD0"/>
<mask id="mask0" style="mask-type:alpha" maskUnits="userSpaceOnUse" x="121" y="136" width="758" height="925">
<path d="M590.909 684.132V753.788H606.061C756.684 753.788 878.788 875.892 878.788 1026.52V1060.61H121.212V1026.52C121.212 875.892 243.316 753.788 393.939 753.788H409.091V684.132C343.798 653.115 296.864 589.724 289.035 514.702C266.971 511.583 250 492.622 250 469.697V416.667C250 394.144 266.381 375.447 287.879 371.841V348.485C287.879 231.334 382.849 136.364 500 136.364C617.151 136.364 712.121 231.334 712.121 348.485V371.841C733.619 375.447 750 394.144 750 416.667V469.697C750 492.622 733.029 511.583 710.965 514.702C703.135 589.724 656.202 653.115 590.909 684.132Z" fill="white"/>
</mask>
<g mask="url(#mask0)">
<path d="M590.909 684.132V753.788H606.061C756.684 753.788 878.788 875.892 878.788 1026.52V1060.61H121.212V1026.52C121.212 875.892 243.316 753.788 393.939 753.788H409.091V684.132C343.798 653.115 296.864 589.724 289.035 514.702C266.971 511.583 250 492.622 250 469.697V416.667C250 394.144 266.381 375.447 287.879 371.841V348.485C287.879 231.334 382.849 136.364 500 136.364C617.151 136.364 712.121 231.334 712.121 348.485V371.841C733.619 375.447 750 394.144 750 416.667V469.697C750 492.622 733.029 511.583 710.965 514.702C703.135 589.724 656.202 653.115 590.909 684.132Z" fill="#D0C6AC"/>
<path d="M1121.21 136.364H121.212V1196.97H1121.21V136.364Z" fill="#EDB98A"/>
<path fill-rule="evenodd" clip-rule="evenodd" d="M712.121 435.606V522.727C712.121 639.879 617.151 734.849 500 734.849C382.849 734.849 287.879 639.879 287.879 522.727V435.606V492.424C287.879 609.576 382.849 704.546 500 704.546C617.151 704.546 712.121 609.576 712.121 492.424V435.606Z" fill="black" fill-opacity="0.1"/>
</g>
<mask id="mask1" style="mask-type:alpha" maskUnits="userSpaceOnUse" x="121" y="754" width="758" height="307">
<path fill-rule="evenodd" clip-rule="evenodd" d="M628.638 754.905C768.699 766.383 878.788 883.69 878.788 1026.71V1060.61H121.212V1026.71C121.212 882.396 233.303 764.261 375.172 754.619C375.058 756.034 375 757.459 375 758.892C375 803.828 431.812 840.256 501.894 840.256C571.976 840.256 628.788 803.828 628.788 758.892C628.788 757.556 628.738 756.226 628.638 754.905Z" fill="white"/>
</mask>
<g mask="url(#mask1)">
<path fill-rule="evenodd" clip-rule="evenodd" d="M628.638 754.905C768.699 766.383 878.788 883.69 878.788 1026.71V1060.61H121.212V1026.71C121.212 882.396 233.303 764.261 375.172 754.619C375.058 756.034 375 757.459 375 758.892C375 803.828 431.812 840.256 501.894 840.256C571.976 840.256 628.788 803.828 628.788 758.892C628.788 757.556 628.738 756.226 628.638 754.905Z" fill="#E6E6E6"/>
<path d="M1000 643.939H-1.52588e-05V1060.61H1000V643.939Z" fill="#3C4F5C"/>
<path opacity="0.6" d="M501.894 866.521C584.81 866.521 652.027 820.878 652.027 764.574C652.027 708.271 584.81 662.628 501.894 662.628C418.978 662.628 351.761 708.271 351.761 764.574C351.761 820.878 418.978 866.521 501.894 866.521Z" fill="black" fill-opacity="0.16"/>
</g>
<mask id="mask2" style="mask-type:alpha" maskUnits="userSpaceOnUse" x="428" y="556" width="144" height="73">
<path fill-rule="evenodd" clip-rule="evenodd" d="M428.477 564.879C432.484 600.833 462.977 628.788 500 628.788C537.137 628.788 567.705 600.66 571.56 564.546C571.87 561.639 568.624 556.818 564.556 556.818C508.139 556.818 464.916 556.818 435.935 556.818C431.843 556.818 428.076 561.282 428.477 564.879Z" fill="white"/>
</mask>
<g mask="url(#mask2)">
<path fill-rule="evenodd" clip-rule="evenodd" d="M428.477 564.879C432.484 600.833 462.977 628.788 500 628.788C537.137 628.788 567.705 600.66 571.56 564.546C571.87 561.639 568.624 556.818 564.556 556.818C508.139 556.818 464.916 556.818 435.935 556.818C431.843 556.818 428.076 561.282 428.477 564.879Z" fill="black" fill-opacity="0.7"/>
<path d="M541.667 515.152H462.121C451.661 515.152 443.182 523.631 443.182 534.091V556.818C443.182 567.278 451.661 575.758 462.121 575.758H541.667C552.127 575.758 560.606 567.278 560.606 556.818V534.091C560.606 523.631 552.127 515.152 541.667 515.152Z" fill="white"/>
<path d="M481.061 681.818C504.072 681.818 522.727 663.163 522.727 640.152C522.727 617.14 504.072 598.485 481.061 598.485C458.049 598.485 439.394 617.14 439.394 640.152C439.394 663.163 458.049 681.818 481.061 681.818Z" fill="#FF4F6D"/>
<path d="M518.939 681.818C541.951 681.818 560.606 663.163 560.606 640.152C560.606 617.14 541.951 598.485 518.939 598.485C495.928 598.485 477.273 617.14 477.273 640.152C477.273 663.163 495.928 681.818 518.939 681.818Z" fill="#FF4F6D"/>
</g>
<path fill-rule="evenodd" clip-rule="evenodd" d="M454.546 492.424C454.546 509.16 474.896 522.727 500 522.727C525.104 522.727 545.455 509.16 545.455 492.424" fill="black" fill-opacity="0.16"/>
<path d="M401.515 446.97C414.067 446.97 424.242 436.794 424.242 424.242C424.242 411.69 414.067 401.515 401.515 401.515C388.963 401.515 378.788 411.69 378.788 424.242C378.788 436.794 388.963 446.97 401.515 446.97Z" fill="black" fill-opacity="0.6"/>
<path d="M598.485 446.97C611.037 446.97 621.212 436.794 621.212 424.242C621.212 411.69 611.037 401.515 598.485 401.515C585.933 401.515 575.758 411.69 575.758 424.242C575.758 436.794 585.933 446.97 598.485 446.97Z" fill="black" fill-opacity="0.6"/>
<path d="M348.393 375.485C354.057 339.412 401.737 314.806 436.225 330.686C440.026 332.436 444.525 330.773 446.275 326.973C448.025 323.172 446.363 318.673 442.562 316.923C399.049 296.887 340.666 327.017 333.425 373.134C332.776 377.268 335.601 381.145 339.734 381.794C343.867 382.443 347.744 379.618 348.393 375.485Z" fill="black" fill-opacity="0.6"/>
<path d="M651.608 375.485C645.944 339.412 598.264 314.806 563.775 330.686C559.975 332.436 555.475 330.773 553.726 326.973C551.976 323.172 553.638 318.673 557.438 316.923C600.952 296.887 659.335 327.017 666.576 373.134C667.225 377.268 664.4 381.145 660.267 381.794C656.133 382.443 652.257 379.618 651.608 375.485Z" fill="black" fill-opacity="0.6"/>
<mask id="mask3" style="mask-type:alpha" maskUnits="userSpaceOnUse" x="0" y="0" width="1000" height="1061">
<path d="M1000 0H0V1060.61H1000V0Z" fill="white"/>
</mask>
<g mask="url(#mask3)">
<mask id="mask4" style="mask-type:alpha" maskUnits="userSpaceOnUse" x="276" y="64" width="444" height="311">
<path fill-rule="evenodd" clip-rule="evenodd" d="M678.598 151.214C668.145 140.532 656.007 131.465 644.202 122.373C641.597 120.369 638.95 118.413 636.404 116.333C635.825 115.86 629.894 111.613 629.184 110.049C627.477 106.289 628.466 109.217 628.702 104.73C628.999 99.055 640.571 83.0278 631.936 79.3523C628.138 77.7358 621.362 82.0377 617.718 83.4586C610.592 86.2393 603.378 88.6108 596.01 90.6557C599.54 83.6225 606.27 69.5436 593.621 73.3118C583.766 76.2476 574.584 83.7954 564.681 87.3463C567.957 81.9755 581.06 65.3331 569.221 64.4028C565.536 64.1131 554.815 71.0242 550.848 72.4984C538.967 76.9148 526.831 79.7692 514.356 82.0174C471.939 89.6618 422.338 87.4822 383.094 106.793C352.839 121.681 322.964 144.78 305.486 174.195C288.641 202.548 282.34 233.576 278.814 266.066C276.227 289.909 276.017 314.555 277.227 338.485C277.622 346.325 278.504 382.465 289.894 371.52C295.569 366.067 295.527 344.046 296.956 336.592C299.8 321.762 302.538 306.866 307.28 292.51C315.637 267.212 325.495 240.264 346.314 222.84C359.674 211.66 369.056 196.549 381.841 185.27C387.584 180.204 383.202 180.731 392.435 181.396C398.638 181.842 404.869 182.013 411.085 182.175C425.464 182.549 439.865 182.454 454.248 182.504C483.213 182.609 512.043 183.018 540.98 181.502C553.84 180.828 566.735 180.463 579.56 179.274C586.725 178.609 599.437 174.017 605.335 177.526C610.732 180.737 616.337 191.219 620.213 195.512C629.369 205.657 640.287 213.406 650.994 221.725C673.32 239.072 684.592 260.859 691.373 287.967C698.129 314.975 696.235 340.031 704.596 366.609C706.067 371.282 709.958 379.337 714.755 372.117C715.646 370.776 715.415 363.405 715.415 359.164C715.415 342.044 719.751 329.198 719.696 311.966C719.483 259.573 717.789 191.253 678.598 151.214Z" fill="white"/>
</mask>
<g mask="url(#mask4)">
<path fill-rule="evenodd" clip-rule="evenodd" d="M678.598 151.214C668.145 140.532 656.007 131.465 644.202 122.373C641.597 120.369 638.95 118.413 636.404 116.333C635.825 115.86 629.894 111.613 629.184 110.049C627.477 106.289 628.466 109.217 628.702 104.73C628.999 99.055 640.571 83.0278 631.936 79.3523C628.138 77.7358 621.362 82.0377 617.718 83.4586C610.592 86.2393 603.378 88.6108 596.01 90.6557C599.54 83.6225 606.27 69.5436 593.621 73.3118C583.766 76.2476 574.584 83.7954 564.681 87.3463C567.957 81.9755 581.06 65.3331 569.221 64.4028C565.536 64.1131 554.815 71.0242 550.848 72.4984C538.967 76.9148 526.831 79.7692 514.356 82.0174C471.939 89.6618 422.338 87.4822 383.094 106.793C352.839 121.681 322.964 144.78 305.486 174.195C288.641 202.548 282.34 233.576 278.814 266.066C276.227 289.909 276.017 314.555 277.227 338.485C277.622 346.325 278.504 382.465 289.894 371.52C295.569 366.067 295.527 344.046 296.956 336.592C299.8 321.762 302.538 306.866 307.28 292.51C315.637 267.212 325.495 240.264 346.314 222.84C359.674 211.66 369.056 196.549 381.841 185.27C387.584 180.204 383.202 180.731 392.435 181.396C398.638 181.842 404.869 182.013 411.085 182.175C425.464 182.549 439.865 182.454 454.248 182.504C483.213 182.609 512.043 183.018 540.98 181.502C553.84 180.828 566.735 180.463 579.56 179.274C586.725 178.609 599.437 174.017 605.335 177.526C610.732 180.737 616.337 191.219 620.213 195.512C629.369 205.657 640.287 213.406 650.994 221.725C673.32 239.072 684.592 260.859 691.373 287.967C698.129 314.975 696.235 340.031 704.596 366.609C706.067 371.282 709.958 379.337 714.755 372.117C715.646 370.776 715.415 363.405 715.415 359.164C715.415 342.044 719.751 329.198 719.696 311.966C719.483 259.573 717.789 191.253 678.598 151.214Z" fill="#1F3140"/>
<path d="M996.212 0H-3.78787V1060.61H996.212V0Z" fill="#724133"/>
</g>
</g>
<g filter="url(#filter0_d)">
<path d="M382.576 503.788H372.129C319.374 503.788 287.879 474.757 287.879 426.136C287.879 386.845 294.761 348.485 377.007 348.485H388.144C470.39 348.485 477.273 386.845 477.273 426.136C477.273 471.851 438.338 503.788 382.576 503.788ZM376.46 371.212C303.03 371.212 303.03 397.125 303.03 429.93C303.03 456.712 314.834 488.636 371.102 488.636H382.576C429.413 488.636 462.121 464.496 462.121 429.93C462.121 397.125 462.121 371.212 388.692 371.212H376.46Z" fill="#252C2F"/>
<path d="M617.424 503.788H606.978C554.222 503.788 522.727 474.757 522.727 426.136C522.727 386.845 529.61 348.485 611.856 348.485H622.993C705.239 348.485 712.121 386.845 712.121 426.136C712.121 471.851 673.187 503.788 617.424 503.788ZM611.308 371.212C537.879 371.212 537.879 397.125 537.879 429.93C537.879 456.712 549.695 488.636 605.95 488.636H617.424C664.261 488.636 696.97 464.496 696.97 429.93C696.97 397.125 696.97 371.212 623.54 371.212H611.308Z" fill="#252C2F"/>
<path d="M264.979 370.347C267.598 367.789 296.248 348.485 376.894 348.485C444.513 348.485 458.827 355.503 480.493 366.106L482.079 366.888C483.586 367.421 491.289 370.037 500.299 370.325C508.509 369.973 515.53 367.748 517.582 367.035C542.312 355.008 566.519 348.485 623.106 348.485C703.752 348.485 732.402 367.789 735.021 370.347C741.21 370.347 746.212 375.233 746.212 381.278V392.209C746.212 398.254 741.21 403.14 735.021 403.14C735.021 403.14 708.879 403.14 708.879 414.071C708.879 425.002 701.446 398.254 701.446 392.209V381.562C687.798 376.339 663.365 366.614 623.106 366.614C578.252 366.614 555.913 374.568 536.751 382.466L536.965 382.983L536.956 390.507L528.557 410.771L518.184 406.67C517.257 406.304 515.258 405.645 512.486 404.962C504.759 403.056 496.814 402.476 489.788 403.918C487.211 404.447 484.819 405.241 482.624 406.313L472.615 411.204L462.601 391.652L463.046 382.961L463.352 382.223C446.826 374.522 431.588 366.614 376.894 366.614C336.637 366.614 312.205 376.335 298.554 381.559V392.209C298.554 398.254 287.362 425.002 287.362 414.071C287.362 403.14 264.979 403.14 264.979 403.14C258.802 403.14 253.788 398.254 253.788 392.209V381.278C253.788 375.233 258.802 370.347 264.979 370.347Z" fill="#252C2F"/>
</g>
</g>
<defs>
<filter id="filter0_d" x="238.636" y="340.909" width="522.727" height="185.606" filterUnits="userSpaceOnUse" color-interpolation-filters="sRGB">
<feFlood flood-opacity="0" result="BackgroundImageFix"/>
<feColorMatrix in="SourceAlpha" type="matrix" values="0 0 0 0 0 0 0 0 0 0 0 0 0 0 0 0 0 0 127 0" result="hardAlpha"/>
<feOffset dy="7.57576"/>
<feGaussianBlur stdDeviation="7.57576"/>
<feColorMatrix type="matrix" values="0 0 0 0 0 0 0 0 0 0 0 0 0 0 0 0 0 0 0.2 0"/>
<feBlend mode="normal" in2="BackgroundImageFix" result="effect1_dropShadow"/>
<feBlend mode="normal" in="SourceGraphic" in2="effect1_dropShadow" result="shape"/>
</filter>
<clipPath id="clip0">
<rect width="1000" height="1000" fill="white"/>
</clipPath>
</defs>
</svg>
